<?xml version="1.0" encoding="utf-8"?>
<!-- Generator: Adobe Illustrator 27.5.0, SVG Export Plug-In . SVG Version: 6.00 Build 0)  -->
<svg version="1.1" xmlns="http://www.w3.org/2000/svg" xmlns:xlink="http://www.w3.org/1999/xlink" x="0px" y="0px"
	 viewBox="0 0 500 500" style="enable-background:new 0 0 500 500;" xml:space="preserve">
<g id="Background_Complete">
	<g>
		<rect y="382.398" style="fill:#EBEBEB;" width="500" height="0.25"/>
		<rect x="416.779" y="398.494" style="fill:#EBEBEB;" width="33.122" height="0.25"/>
		<rect x="260.335" y="395.361" style="fill:#EBEBEB;" width="12.887" height="0.25"/>
		<rect x="322.527" y="396.417" style="fill:#EBEBEB;" width="27.14" height="0.25"/>
		<rect x="359.667" y="389.208" style="fill:#EBEBEB;" width="56.111" height="0.25"/>
		<rect x="52.459" y="400.778" style="fill:#EBEBEB;" width="26.527" height="0.25"/>
		<rect x="87.889" y="400.778" style="fill:#EBEBEB;" width="23" height="0.25"/>
		<rect x="131" y="395.236" style="fill:#EBEBEB;" width="60.814" height="0.25"/>
		<path style="fill:#EBEBEB;" d="M237.014,337.8H43.915c-3.147,0-5.708-2.561-5.708-5.708V60.66c0-3.147,2.561-5.708,5.708-5.708
			h193.099c3.146,0,5.707,2.561,5.707,5.708v271.432C242.721,335.239,240.16,337.8,237.014,337.8z M43.915,55.203
			c-3.01,0-5.458,2.448-5.458,5.458v271.432c0,3.01,2.448,5.458,5.458,5.458h193.099c3.009,0,5.457-2.448,5.457-5.458V60.66
			c0-3.009-2.448-5.458-5.457-5.458H43.915z"/>
		<path style="fill:#EBEBEB;" d="M453.31,337.8H260.212c-3.147,0-5.707-2.561-5.707-5.708V60.66c0-3.147,2.561-5.708,5.707-5.708
			H453.31c3.148,0,5.708,2.561,5.708,5.708v271.432C459.019,335.239,456.458,337.8,453.31,337.8z M260.212,55.203
			c-3.009,0-5.457,2.448-5.457,5.458v271.432c0,3.01,2.448,5.458,5.457,5.458H453.31c3.01,0,5.458-2.448,5.458-5.458V60.66
			c0-3.009-2.448-5.458-5.458-5.458H260.212z"/>
	</g>
	<g>
		<g>
			<g>
				<path style="fill:#EBEBEB;" d="M467.064,194.172c3.255-11.284,2.658-22.76-0.991-33.044c2.852-4.083,5.103-8.689,6.56-13.742
					c6.697-23.218-5.515-47.403-27.538-56.106c-4.25-30.415-25.837-57-57.252-66.06c-24.837-7.163-50.307-1.778-69.671,12.389
					c-4.846-5.072-11.048-8.975-18.274-11.059c-21.781-6.282-44.531,6.283-50.812,28.063c-1.051,3.643-1.563,7.312-1.604,10.927
					c-21.919,4.415-40.689,20.572-47.314,43.54c-5.951,20.634-0.684,41.839,12.192,57.11c-1.664,3.007-3.031,6.237-4.024,9.68
					c-7.131,24.726,7.132,50.551,31.858,57.682c8.153,2.352,16.422,2.364,24.105,0.455c9.09,12.533,22.256,22.251,38.285,26.874
					c20.626,5.949,41.737,2.249,58.541-8.415c7.521,17.494,13.704,43.732,0.397,69.462c48.344-4.742,83.256-51.113,76.141-93.597
					C451.458,221.983,462.525,209.909,467.064,194.172z"/>
				<path style="fill:#FFFFFF;" d="M374.317,312.332c-0.261,0-0.515-0.102-0.706-0.291c-0.258-0.257-0.356-0.635-0.255-0.985
					c6.81-23.717,0.604-46.456-5.801-61.355l-3.245-7.547l-6.937,4.402c-10.474,6.646-22.518,10.16-34.829,10.16
					c-6.066,0-12.129-0.861-18.021-2.56c-14.034-4.048-25.983-12.437-34.558-24.26l-2.772-3.822l-4.582,1.14
					c-6.718,1.67-13.791,1.538-20.476-0.388c-10.162-2.931-18.574-9.644-23.689-18.902c-5.113-9.259-6.315-19.953-3.384-30.115
					c0.819-2.837,1.971-5.606,3.423-8.23l2.334-4.218l-3.107-3.685c-11.864-14.069-15.909-33.007-10.818-50.657
					c5.698-19.754,21.78-34.551,41.971-38.617l5.553-1.118l0.064-5.665c0.035-3.077,0.482-6.127,1.33-9.066
					c4.181-14.497,17.625-24.622,32.693-24.622c3.183,0,6.364,0.452,9.454,1.344c5.773,1.665,11.013,4.836,15.152,9.17l4.24,4.438
					l4.955-3.623c12.515-9.157,27.887-14.2,43.283-14.2c6.838,0,13.673,0.971,20.314,2.886
					c27.746,8.003,48.259,31.674,52.259,60.304l0.564,4.041l3.795,1.501c19.001,7.51,29.055,27.997,23.385,47.656
					c-1.205,4.177-3.08,8.104-5.573,11.672l-2.064,2.954l1.205,3.397c3.305,9.314,3.604,19.259,0.863,28.763
					c-3.796,13.159-13.128,23.999-25.602,29.739l-4.862,2.237l0.884,5.278c3.036,18.129-2.425,37.931-14.983,54.33
					c-10.46,13.657-25.083,23.77-41.177,28.475C374.505,312.319,374.411,312.332,374.317,312.332z M364.766,239.681
					c0.099,0,0.199,0.015,0.295,0.045c0.28,0.086,0.507,0.291,0.623,0.561l3.708,8.625c6.376,14.83,12.552,37.293,6.37,60.934
					c15.006-4.789,28.598-14.412,38.425-27.244c12.223-15.96,17.544-35.199,14.599-52.783l-1.01-6.032
					c-0.075-0.445,0.158-0.885,0.568-1.073l5.556-2.557c11.946-5.498,20.881-15.877,24.516-28.478
					c2.624-9.1,2.338-18.622-0.826-27.54l-1.377-3.882c-0.108-0.304-0.063-0.642,0.122-0.906l2.358-3.376
					c2.367-3.389,4.147-7.117,5.291-11.082c5.383-18.663-4.161-38.113-22.199-45.242l-4.337-1.715
					c-0.335-0.132-0.573-0.435-0.622-0.791l-0.645-4.618c-3.892-27.85-23.845-50.875-50.833-58.659
					c-6.461-1.863-13.11-2.808-19.76-2.808c-14.975,0-29.927,4.906-42.103,13.814l-5.662,4.142
					c-0.405,0.297-0.967,0.246-1.313-0.116l-4.846-5.072c-3.896-4.078-8.827-7.062-14.261-8.629c-2.91-0.84-5.904-1.266-8.899-1.266
					c-14.182,0-26.835,9.53-30.771,23.177c-0.798,2.766-1.219,5.637-1.251,8.534l-0.073,6.474c-0.005,0.472-0.34,0.875-0.803,0.969
					l-6.347,1.278c-19.456,3.918-34.953,18.177-40.443,37.211c-4.905,17.007-1.007,35.255,10.426,48.814l3.551,4.211
					c0.267,0.316,0.311,0.766,0.11,1.129l-2.667,4.82c-1.38,2.492-2.474,5.122-3.251,7.815c-2.783,9.647-1.642,19.803,3.213,28.594
					c4.855,8.791,12.843,15.165,22.491,17.947c6.349,1.83,13.063,1.954,19.44,0.368l5.237-1.302
					c0.394-0.101,0.811,0.052,1.051,0.384l3.168,4.368c8.311,11.458,19.892,19.589,33.493,23.512
					c5.712,1.648,11.588,2.482,17.467,2.482c11.931,0,23.604-3.406,33.757-9.85l7.928-5.03
					C364.392,239.733,364.578,239.681,364.766,239.681z"/>
			</g>
			<g>
				<path style="fill:#FFFFFF;" d="M304.191,146.189l-26.804-4.173l0.417-2.68c0.71-4.561,1.803-8.184,3.281-10.868
					c1.478-2.684,3.422-5.042,5.834-7.076c2.411-2.032,7.652-5.455,15.723-10.266c4.293-2.512,6.639-5.059,7.042-7.645
					c0.403-2.586-0.049-4.715-1.353-6.388c-1.305-1.673-3.509-2.75-6.613-3.234c-3.339-0.52-6.274,0.156-8.804,2.024
					c-2.531,1.87-4.531,5.508-5.999,10.916l-26.841-7.647c2.507-9.917,7.423-17.448,14.752-22.591
					c7.327-5.146,17.574-6.693,30.741-4.643c10.251,1.596,18.194,5.025,23.829,10.285c7.658,7.115,10.736,15.495,9.236,25.133
					c-0.623,3.999-2.328,7.682-5.117,11.053c-2.789,3.371-8.009,7.206-15.662,11.504c-5.336,3.024-8.804,5.577-10.405,7.664
					C305.847,139.644,304.762,142.521,304.191,146.189z M275.36,148.998l28.708,4.469l-3.942,25.322l-28.708-4.469L275.36,148.998z"
					/>
			</g>
			<g>
				<path style="fill:#FFFFFF;" d="M372.593,185.424l-14.882-12.055l1.205-1.488c2.051-2.533,4.004-4.356,5.858-5.47
					c1.854-1.115,3.877-1.864,6.071-2.25c2.193-0.385,6.606-0.616,13.239-0.69c3.511-0.011,5.847-0.733,7.01-2.169
					c1.163-1.436,1.643-2.896,1.44-4.379c-0.203-1.484-1.167-2.924-2.89-4.32c-1.854-1.502-3.885-2.13-6.092-1.887
					c-2.208,0.244-4.719,1.755-7.533,4.536l-13.672-14.188c5.047-5.164,10.72-8.017,17.018-8.558
					c6.298-0.542,13.101,2.148,20.411,8.069c5.691,4.61,9.323,9.521,10.898,14.73c2.151,7.059,1.057,13.267-3.277,18.618
					c-1.798,2.22-4.146,3.863-7.044,4.932c-2.898,1.069-7.445,1.558-13.641,1.467c-4.33-0.047-7.352,0.281-9.069,0.988
					C375.925,182.017,374.242,183.388,372.593,185.424z M353.997,176.913l15.939,12.911l-11.388,14.059l-15.939-12.911
					L353.997,176.913z"/>
			</g>
			<g>
				<path style="fill:#FFFFFF;" d="M376.753,98.804l-6.441-8.795l0.879-0.644c1.497-1.096,2.836-1.816,4.018-2.161
					c1.182-0.344,2.405-0.463,3.668-0.357c1.263,0.106,3.725,0.62,7.387,1.542c1.934,0.504,3.325,0.445,4.173-0.176
					c0.849-0.621,1.325-1.355,1.428-2.201c0.103-0.846-0.218-1.778-0.964-2.797c-0.802-1.096-1.829-1.737-3.079-1.923
					c-1.251-0.186-2.852,0.281-4.805,1.403l-5.466-9.794c3.528-2.11,7.064-2.857,10.609-2.24c3.545,0.616,6.899,3.084,10.063,7.404
					c2.464,3.364,3.75,6.594,3.86,9.69c0.159,4.198-1.344,7.456-4.506,9.772c-1.312,0.961-2.843,1.525-4.593,1.692
					c-1.75,0.167-4.324-0.223-7.721-1.173c-2.376-0.654-4.088-0.912-5.135-0.773C379.082,97.412,377.957,97.923,376.753,98.804z
					 M367.754,91.42l6.899,9.42l-8.309,6.085l-6.899-9.42L367.754,91.42z"/>
			</g>
		</g>
		<g>
			<g>
				<path style="fill:#E6E6E6;" d="M128.335,223.574c-8.269,0-16.587-2.265-23.959-6.658c-10.147-6.047-17.318-15.42-19.754-25.785
					c-8.237-0.593-15.826-4.638-20.893-11.159c-3.666-4.718-5.761-10.345-6.073-16.297c-2.174-1.478-4.093-3.278-5.707-5.355
					c-7.887-10.15-6.896-24.399,2.249-33.336c-3.813-16.257,2.198-33.313,15.391-43.564c10.349-8.043,23.531-10.868,36.271-7.798
					c1.482-3.376,3.793-6.344,6.714-8.613c4.694-3.647,10.528-5.248,16.427-4.51c5.899,0.74,11.156,3.733,14.804,8.428
					c1.099,1.415,2.024,2.96,2.755,4.6c12.034-1.97,24.083,2.733,31.575,12.375c6.7,8.621,8.717,19.922,5.443,30.33
					c1.311,1.12,2.501,2.363,3.542,3.704c8.512,10.954,6.525,26.792-4.429,35.305c-3.345,2.6-7.302,4.314-11.475,4.977
					c-2.179,8.161-6.851,15.207-13.536,20.401c-8.439,6.559-19.246,9.296-29.788,7.578c-0.106,9.715,2.152,22.885,13.025,32.301
					c0.217,0.188,0.314,0.479,0.253,0.761c-0.062,0.281-0.272,0.506-0.548,0.586C136.624,223.003,132.485,223.573,128.335,223.574z
					 M95.727,73.981c-9.032,0-17.842,2.979-25.175,8.677c-12.824,9.966-18.603,26.605-14.723,42.393
					c0.067,0.274-0.018,0.564-0.224,0.759c-8.86,8.355-9.899,21.919-2.417,31.548c1.59,2.046,3.496,3.806,5.664,5.229
					c0.212,0.14,0.344,0.372,0.354,0.626c0.224,5.77,2.217,11.232,5.763,15.796c4.909,6.317,12.319,10.178,20.33,10.592
					c0.354,0.018,0.651,0.27,0.726,0.616c2.209,10.173,9.191,19.413,19.155,25.352c10.276,6.125,22.452,7.968,33.629,5.143
					c-10.731-10.037-12.725-23.659-12.468-33.466c0.006-0.23,0.113-0.445,0.292-0.59c0.179-0.144,0.411-0.201,0.638-0.161
					c10.387,1.951,21.119-0.643,29.448-7.113c6.544-5.086,11.078-12.021,13.109-20.056c0.079-0.311,0.337-0.542,0.654-0.585
					c4.092-0.562,7.981-2.199,11.247-4.737c10.271-7.982,12.134-22.832,4.153-33.104c-1.078-1.387-2.325-2.665-3.709-3.797
					c-0.252-0.206-0.35-0.546-0.248-0.854c3.339-10.051,1.46-21.034-5.028-29.383c-7.26-9.343-19.011-13.818-30.671-11.688
					c-0.365,0.067-0.725-0.131-0.867-0.473c-0.712-1.727-1.651-3.347-2.792-4.815c-3.391-4.363-8.277-7.146-13.76-7.833
					c-5.483-0.692-10.906,0.801-15.269,4.191c-2.883,2.241-5.126,5.212-6.487,8.592c-0.147,0.365-0.545,0.564-0.923,0.467
					C102.675,74.418,99.184,73.981,95.727,73.981z"/>
			</g>
			<g>
				<path style="fill:#EBEBEB;" d="M100.595,139.957l-13.813,3.252l-0.325-1.381c-0.553-2.351-0.736-4.322-0.548-5.913
					c0.188-1.592,0.667-3.117,1.435-4.578c0.769-1.46,2.635-4.15,5.601-8.07c1.586-2.062,2.222-3.759,1.909-5.091
					c-0.314-1.333-0.951-2.276-1.913-2.83c-0.962-0.554-2.242-0.643-3.842-0.266c-1.721,0.405-3.01,1.31-3.869,2.714
					c-0.859,1.405-1.112,3.561-0.759,6.471l-14.515,1.576c-0.736-5.3,0.165-9.918,2.705-13.853c2.539-3.936,7.201-6.702,13.987-8.3
					c5.283-1.244,9.808-1.145,13.574,0.296c5.112,1.942,8.253,5.398,9.423,10.365c0.485,2.061,0.383,4.181-0.305,6.364
					c-0.688,2.183-2.464,5.069-5.328,8.658c-1.991,2.516-3.17,4.436-3.535,5.762C100.11,136.458,100.15,138.067,100.595,139.957z
					 M87.173,146.992l14.794-3.483l3.072,13.049l-14.795,3.483L87.173,146.992z"/>
			</g>
			<g>
				<path style="fill:#EBEBEB;" d="M135.753,110.788l-9.585-2.914l0.291-0.958c0.496-1.631,1.083-2.899,1.763-3.804
					c0.679-0.905,1.513-1.666,2.5-2.285c0.987-0.618,3.081-1.598,6.281-2.94c1.7-0.696,2.69-1.506,2.971-2.431
					c0.281-0.925,0.227-1.727-0.164-2.406c-0.391-0.679-1.141-1.188-2.251-1.525c-1.194-0.363-2.302-0.268-3.324,0.284
					c-1.022,0.553-1.942,1.779-2.759,3.681l-9.419-4.187c1.43-3.496,3.618-5.996,6.565-7.497c2.946-1.502,6.773-1.537,11.482-0.105
					c3.666,1.115,6.393,2.78,8.181,4.995c2.432,2.999,3.123,6.222,2.075,9.669c-0.435,1.43-1.249,2.688-2.443,3.777
					c-1.195,1.088-3.302,2.22-6.323,3.396c-2.108,0.829-3.508,1.583-4.202,2.264C136.698,108.48,136.152,109.476,135.753,110.788z
					 M125.065,110.322l10.266,3.121l-2.753,9.055l-10.266-3.121L125.065,110.322z"/>
			</g>
		</g>
	</g>
</g>
<g id="Background_Simple" style="display:none;">
	<g style="display:inline;">
		<path style="fill:#407BFF;" d="M74.826,95.337c-95.714,61.985,62.101,91.135,102.842,124.741
			c29.231,24.112,18.829,76.337,63.89,105.359c47.355,30.499,117.043,29.973,152.296,12.783
			c53.267-25.975,52.211-142.653-34.624-184.187c-65.855-31.498-115.205,15.386-182.862-9.758
			C133.831,128.466,126.935,61.593,74.826,95.337z"/>
		<path style="opacity:0.9;fill:#FFFFFF;" d="M74.826,95.337c-95.714,61.985,62.101,91.135,102.842,124.741
			c29.231,24.112,18.829,76.337,63.89,105.359c47.355,30.499,117.043,29.973,152.296,12.783
			c53.267-25.975,52.211-142.653-34.624-184.187c-65.855-31.498-115.205,15.386-182.862-9.758
			C133.831,128.466,126.935,61.593,74.826,95.337z"/>
	</g>
</g>
<g id="Shadow_1_">
	<ellipse id="_x3C_Path_x3E__372_" style="fill:#F5F5F5;" cx="250" cy="416.238" rx="193.889" ry="11.323"/>
</g>
<g id="Question_Marks">
	<g>
		<g>
			<path style="fill:#407BFF;" d="M157.612,247.439l-0.921-0.391c0.827-1.954,1.303-3.575,1.454-4.955l0.994,0.109
				C158.977,243.681,158.477,245.393,157.612,247.439z M157.219,235.983c-1.94-4.263-5.547-6.951-10.431-7.774l0.166-0.986
				c5.226,0.881,9.09,3.768,11.175,8.347L157.219,235.983z"/>
			<path style="fill:#407BFF;" d="M151.983,257.497l-9.839,4.479l-0.448-0.984c-0.762-1.674-1.191-3.12-1.287-4.337
				c-0.096-1.217,0.036-2.428,0.393-3.633c0.358-1.204,1.354-3.492,2.987-6.861c0.879-1.776,1.103-3.138,0.671-4.087
				c-0.432-0.949-1.049-1.559-1.849-1.831c-0.801-0.271-1.771-0.148-2.91,0.371c-1.226,0.558-2.055,1.425-2.488,2.602
				c-0.433,1.177-0.303,2.826,0.393,4.948l-10.611,3.33c-1.337-3.851-1.348-7.435-0.034-10.752c1.313-3.317,4.386-6.076,9.219-8.276
				c3.763-1.713,7.158-2.31,10.186-1.793c4.108,0.692,6.967,2.809,8.578,6.346c0.668,1.468,0.907,3.068,0.716,4.801
				c-0.191,1.733-1.089,4.153-2.696,7.26c-1.115,2.175-1.711,3.785-1.786,4.83C151.102,254.955,151.37,256.15,151.983,257.497z
				 M142.999,264.744l10.537-4.797l4.231,9.294l-10.537,4.797L142.999,264.744z"/>
		</g>
		<g>
			<path style="fill:#407BFF;" d="M127.641,279.732l-5.005,6.794l-0.679-0.5c-1.156-0.852-1.998-1.674-2.526-2.468
				c-0.528-0.794-0.899-1.669-1.113-2.627c-0.214-0.957-0.405-2.895-0.571-5.814c-0.076-1.545-0.441-2.559-1.097-3.042
				c-0.656-0.483-1.308-0.665-1.957-0.545c-0.649,0.12-1.263,0.573-1.843,1.359c-0.623,0.846-0.859,1.753-0.707,2.72
				c0.152,0.967,0.868,2.042,2.149,3.224l-5.969,6.305c-2.375-2.117-3.746-4.557-4.111-7.318c-0.366-2.761,0.681-5.811,3.139-9.148
				c1.914-2.599,4.002-4.297,6.264-5.095c3.064-1.089,5.818-0.734,8.261,1.066c1.014,0.747,1.784,1.747,2.314,3.001
				c0.529,1.254,0.836,3.246,0.922,5.975c0.067,1.907,0.273,3.231,0.618,3.972C126.073,278.333,126.711,279.047,127.641,279.732z
				 M124.27,288.089l5.361-7.277l6.419,4.728l-5.361,7.277L124.27,288.089z"/>
		</g>
	</g>
</g>
<g id="Character_1_">
	<g>
		<path style="fill:#407BFF;" d="M234.088,412.636c-1.623,0-3.19-0.884-3.987-2.425c-4.019-7.763-9.067-16.872-18.154-26.732
			c-1.063-1.152-1.446-2.776-1.012-4.282c3.374-11.711,8.671-27.719,8.724-27.879c0.779-2.354,3.317-3.626,5.668-2.848
			c2.352,0.778,3.627,3.316,2.848,5.668c-0.049,0.148-4.611,13.938-7.923,25.156c8.352,9.473,13.501,18.458,17.816,26.794
			c1.139,2.199,0.279,4.906-1.921,6.045C235.487,412.475,234.783,412.636,234.088,412.636z"/>
		<polygon style="fill:#263238;" points="241.56,416.238 206.772,416.238 225.208,405.781 240.663,406.379 		"/>
		
			<ellipse transform="matrix(0.9545 -0.2983 0.2983 0.9545 -94.0061 84.8068)" style="fill:#263238;" cx="230.795" cy="350.336" rx="30.042" ry="24.896"/>
		<path style="fill:#263238;" d="M151.653,333.981c-1.76,0.001-3.431-1.042-4.146-2.77c-0.948-2.289,0.139-4.913,2.427-5.861
			c2.605-1.079,2.968-3.743,2.97-3.77c0.188-2.005,1.689-3.639,3.67-3.995c1.069-0.193,2.102-0.495,3.297-0.845
			c6.078-1.775,13.604-3.977,37.309,2.662c23.381-13.076,23.647-37.597,23.647-38.655c-0.001-2.472,1.998-4.485,4.47-4.494
			c0.005,0,0.01,0,0.016,0c2.465,0,4.469,1.982,4.485,4.449c0.009,1.303-0.137,32.083-30.042,47.499
			c-1.019,0.525-2.198,0.643-3.3,0.322c-22.595-6.525-28.957-4.666-34.068-3.172c-0.453,0.132-0.912,0.267-1.38,0.396
			c-1.107,2.847-3.411,6.138-7.641,7.891C152.807,333.872,152.225,333.981,151.653,333.981z"/>
		<path style="fill:#407BFF;" d="M204.081,301.891c-8.506-33.825-31.184-121.061,41.467-126.394
			c65.178-4.785,83.067,81.97,87.415,112.026c2.534,17.517,3.386,33.404,3.534,45.819c0.191,16.015-11.06,29.825-26.755,33.013
			c-35.511,7.212-69.116,8.238-91.749-0.695c-6.12-2.416-9.821-8.652-9.233-15.205C209.632,340.738,209.648,324.028,204.081,301.891
			z"/>
		<path style="opacity:0.1;" d="M332.96,287.52c-4.097-28.324-20.221-107.042-76.66-111.964c-6.568-0.573-13.049,2.66-16.074,8.517
			c-2.518,4.876-2.437,10.791,1.335,16.636C254,220,283.665,286.67,279.185,323c-2.04,16.53-12.407,29.728-3.385,48.31
			c10.89-0.9,22.31-2.59,33.94-4.96c15.7-3.18,26.95-16.99,26.76-33.01C336.35,320.93,335.5,305.04,332.96,287.52z"/>
		<path style="fill:#263238;" d="M323.239,333.79c-0.245,0-0.446-0.197-0.449-0.443c-0.185-15.452-1.372-30.849-3.529-45.76
			c-10.799-74.652-39.875-112.408-84.097-109.15c-0.241,0.029-0.462-0.167-0.48-0.414c-0.018-0.247,0.167-0.463,0.415-0.48
			c44.752-3.301,74.173,34.723,85.05,109.916c2.163,14.95,3.354,30.387,3.539,45.879c0.003,0.247-0.196,0.45-0.443,0.453
			C323.243,333.79,323.241,333.79,323.239,333.79z"/>
		
			<ellipse transform="matrix(0.9545 -0.2983 0.2983 0.9545 -90.8803 110.0747)" style="fill:#263238;" cx="315.124" cy="352.728" rx="30.042" ry="24.896"/>
		<path style="fill:#407BFF;" d="M325.295,412.636c-1.623,0-3.19-0.884-3.987-2.425c-4.018-7.763-9.067-16.871-18.154-26.732
			c-1.062-1.153-1.445-2.776-1.011-4.282c3.374-11.711,8.671-27.719,8.724-27.879c0.779-2.353,3.313-3.632,5.668-2.848
			c2.352,0.778,3.627,3.316,2.848,5.668c-0.049,0.148-4.611,13.938-7.923,25.156c8.352,9.473,13.501,18.458,17.815,26.794
			c1.139,2.199,0.279,4.906-1.921,6.045C326.694,412.475,325.99,412.636,325.295,412.636z"/>
		<path style="fill:#263238;" d="M315.876,275.906c-1.614,0-3.173-0.873-3.976-2.401c-1.149-2.19-0.31-4.896,1.875-6.051l0,0
			c0.865-0.46,20.395-11.135,25.878-36.77c-13.021-5.445-36.423-17.738-41.54-23.917c-0.496-0.599-0.827-1.315-0.962-2.081
			c-0.12-0.675-0.961-5.979,1.001-11.002l-2.362-4.562c-1.139-2.2-0.279-4.906,1.921-6.046c2.2-1.136,4.907-0.279,6.046,1.921
			l3.398,6.563c0.727,1.403,0.661,3.085-0.172,4.428c-1.073,1.73-1.206,4.262-1.119,5.912c5.763,5.206,29.04,17.543,40.427,21.77
			c1.998,0.741,3.198,2.786,2.872,4.892c-5.072,32.767-30.14,46.271-31.205,46.829C317.292,275.741,316.579,275.906,315.876,275.906
			z"/>
		<path style="fill:#263238;" d="M301.566,206.149c-0.421,0-0.846-0.118-1.225-0.365c-1.037-0.678-1.328-2.067-0.65-3.104
			c0.155-0.237,3.863-5.83,9.503-7.341c1.195-0.323,2.427,0.39,2.747,1.586c0.32,1.196-0.39,2.426-1.586,2.746
			c-3.939,1.056-6.88,5.418-6.909,5.462C303.015,205.791,302.298,206.149,301.566,206.149z"/>
		<polygon style="fill:#263238;" points="332.768,416.238 297.979,416.238 316.415,405.781 331.871,406.379 		"/>
		<g>
			
				<ellipse transform="matrix(0.9961 -0.0882 0.0882 0.9961 -21.9882 23.7599)" style="fill:#FFFFFF;" cx="258.008" cy="260.823" rx="23.923" ry="21.531"/>
			<path style="fill:#263238;" d="M258.498,261.115c1.81,6.351,0.446,12.306-3.045,13.301c-3.492,0.995-7.789-3.347-9.599-9.698
				c-1.81-6.351-0.446-12.306,3.045-13.301S256.689,254.764,258.498,261.115z"/>
			<path style="fill:#263238;" d="M230.795,264.86c15.102-1.944,45.005-10.466,49.939-13.905
				c-3.888-11.363-21.959-21.082-38.128-15.608C228.032,240.282,230.795,264.86,230.795,264.86z"/>
			<path style="fill:#263238;" d="M233.734,272.16c18.742-3.562,43.114-9.543,50.084-13.375c-0.43,12.228-3.98,24.615-23.119,28.802
				C245.062,291.008,233.734,272.16,233.734,272.16z"/>
		</g>
		<g>
			
				<ellipse transform="matrix(0.834 -0.5518 0.5518 0.834 -113.5489 159.3437)" style="fill:#FFFFFF;" cx="208.012" cy="268.36" rx="14.719" ry="18.626"/>
			<path style="fill:#263238;" d="M208.337,268.68c1.137,5.357,0.155,9.826-2.193,9.982c-2.349,0.155-5.175-4.061-6.313-9.419
				c-1.137-5.357-0.156-9.826,2.193-9.982C204.373,259.106,207.2,263.322,208.337,268.68z"/>
			<path style="fill:#263238;" d="M189.748,266.628c10.132,1.196,30.25-0.138,33.593-1.967c-2.47-9.703-14.454-20.672-25.342-19.265
				C188.185,246.664,189.748,266.628,189.748,266.628z"/>
			<path style="fill:#263238;" d="M191.63,272.942c12.588,0.573,28.973,0.251,33.684-1.521c-0.43,9.606-2.951,18.772-15.812,18.622
				C198.994,289.919,191.63,272.942,191.63,272.942z"/>
		</g>
		<path style="fill:#263238;" d="M264.088,229.3c-18.885,0-31.442-9.33-32.059-9.798c-1.974-1.497-2.36-4.311-0.864-6.285
			c1.495-1.969,4.301-2.357,6.273-0.871c0.217,0.159,15.133,11.036,35.838,7.111c2.436-0.457,4.782,1.139,5.243,3.571
			c0.461,2.435-1.138,4.781-3.571,5.243C271.145,228.993,267.511,229.3,264.088,229.3z"/>
		<path style="fill:#263238;" d="M183.878,221.566c-0.504,0.001-1.016-0.085-1.517-0.265c-2.331-0.838-3.542-3.407-2.705-5.738
			c2.378-6.619,6.321-10.917,11.72-12.774c9.787-3.371,20.327,3.183,20.771,3.464c2.095,1.323,2.72,4.094,1.397,6.188
			c-1.321,2.089-4.083,2.718-6.176,1.404c-2.042-1.271-8.374-4.205-13.1-2.564c-2.723,0.946-4.741,3.34-6.169,7.314
			C187.442,220.427,185.717,221.566,183.878,221.566z"/>
		<path style="fill:#263238;" d="M219.231,297.246c-0.124,0-0.249-0.017-0.374-0.054c-0.707-0.206-1.119-0.933-0.921-1.643
			c0.034-0.122,0.877-3.027,4.562-4.929c5.146-2.653,12.988-2.104,23.309,1.632c0.699,0.253,1.061,1.025,0.807,1.724
			c-0.253,0.7-1.025,1.063-1.723,0.808c-11.834-4.287-17.977-3.36-21.048-1.827c-2.681,1.338-3.294,3.249-3.318,3.33
			C220.346,296.867,219.81,297.246,219.231,297.246z"/>
		<g>
			<g>
				<path style="fill:#407BFF;" d="M176.882,292.32c-26.101,2.344-44.786,13.151-44.786,13.151
					c7.729-1.46,35.355,32.727,42.458,59.094c13.102-4.859,28.382-8.167,44.678-10.751
					C209.362,326.637,191.313,295.852,176.882,292.32z"/>
				<path style="opacity:0.6;fill:#FFFFFF;" d="M176.882,292.32c-26.101,2.344-44.786,13.151-44.786,13.151
					c7.729-1.46,35.355,32.727,42.458,59.094c13.102-4.859,28.382-8.167,44.678-10.751
					C209.362,326.637,191.313,295.852,176.882,292.32z"/>
			</g>
			<g>
				<path style="fill:#407BFF;" d="M176.882,292.32c-17.08-1.928-44.811,12.372-44.811,12.372c-4.913,3.133-3.58,9.011-0.899,11.49
					c2.572-3.691,31.233-13.294,42.007-14.582C167.817,296.64,172.798,293.043,176.882,292.32z"/>
				<path style="opacity:0.2;fill:#FFFFFF;" d="M176.882,292.32c-17.08-1.928-44.811,12.372-44.811,12.372
					c-4.913,3.133-3.58,9.011-0.899,11.49c2.572-3.691,31.233-13.294,42.007-14.582C167.817,296.64,172.798,293.043,176.882,292.32z
					"/>
			</g>
		</g>
		<path style="fill:#263238;" d="M151.656,333.981c-1.465,0-2.9-0.717-3.761-2.035c-3.253-4.984-1.221-12.59-0.781-14.063
			c0.709-2.374,3.207-3.723,5.582-3.014c2.371,0.708,3.72,3.202,3.016,5.573c-0.733,2.51-0.882,5.717-0.305,6.602
			c1.354,2.074,0.77,4.854-1.305,6.208C153.346,333.745,152.496,333.981,151.656,333.981z"/>
	</g>
</g>
<g id="_x34_00_ERROR">
	<g>
		<g>
			<path style="fill:#407BFF;" d="M136.325,137.943H121.19v-6.833l15.135-17.989h7.241v18.377h3.753v6.445h-3.753v5.589h-7.241
				V137.943z M136.325,131.498v-9.41l-7.997,9.41H136.325z"/>
			<path style="fill:#407BFF;" d="M149.909,128.459c0-5.684,1.023-9.661,3.07-11.932c2.046-2.271,5.164-3.406,9.352-3.406
				c2.012,0,3.665,0.248,4.956,0.744c1.292,0.496,2.346,1.143,3.162,1.938c0.816,0.796,1.458,1.632,1.927,2.509
				c0.469,0.877,0.847,1.9,1.132,3.07c0.557,2.229,0.836,4.555,0.836,6.976c0,5.425-0.918,9.395-2.753,11.911
				c-1.836,2.516-4.997,3.773-9.484,3.773c-2.516,0-4.548-0.401-6.099-1.203c-1.55-0.803-2.822-1.979-3.814-3.528
				c-0.721-1.102-1.282-2.607-1.683-4.518C150.109,132.882,149.909,130.77,149.909,128.459z M158.149,128.48
				c0,3.808,0.336,6.408,1.01,7.802c0.673,1.394,1.648,2.091,2.927,2.091c0.843,0,1.574-0.296,2.193-0.888
				c0.618-0.591,1.074-1.526,1.366-2.805c0.292-1.277,0.438-3.27,0.438-5.976c0-3.971-0.336-6.64-1.009-8.006
				c-0.673-1.366-1.683-2.05-3.029-2.05c-1.374,0-2.366,0.697-2.978,2.091C158.456,122.133,158.149,124.713,158.149,128.48z"/>
			<path style="fill:#407BFF;" d="M177.771,128.459c0-5.684,1.023-9.661,3.07-11.932c2.046-2.271,5.164-3.406,9.352-3.406
				c2.012,0,3.665,0.248,4.956,0.744c1.292,0.496,2.346,1.143,3.162,1.938c0.816,0.796,1.458,1.632,1.927,2.509
				c0.469,0.877,0.847,1.9,1.132,3.07c0.557,2.229,0.836,4.555,0.836,6.976c0,5.425-0.918,9.395-2.753,11.911
				c-1.836,2.516-4.997,3.773-9.484,3.773c-2.516,0-4.548-0.401-6.099-1.203c-1.55-0.803-2.822-1.979-3.814-3.528
				c-0.721-1.102-1.282-2.607-1.683-4.518C177.971,132.882,177.771,130.77,177.771,128.459z M186.011,128.48
				c0,3.808,0.337,6.408,1.01,7.802c0.673,1.394,1.648,2.091,2.927,2.091c0.843,0,1.574-0.296,2.193-0.888
				c0.618-0.591,1.074-1.526,1.366-2.805c0.292-1.277,0.438-3.27,0.438-5.976c0-3.971-0.336-6.64-1.009-8.006
				c-0.673-1.366-1.683-2.05-3.029-2.05c-1.373,0-2.366,0.697-2.977,2.091C186.317,122.133,186.011,124.713,186.011,128.48z"/>
			<path style="fill:#263238;" d="M220.89,113.631h24.762v6.384H230.15v4.753h14.379v6.099H230.15v5.895h15.95v6.771h-25.21V113.631
				z"/>
			<path style="fill:#263238;" d="M251.199,143.532v-29.901h15.4c2.855,0,5.038,0.244,6.547,0.734
				c1.509,0.489,2.726,1.397,3.651,2.723c0.924,1.326,1.387,2.94,1.387,4.844c0,1.659-0.353,3.091-1.061,4.294
				c-0.708,1.203-1.681,2.18-2.918,2.927c-0.789,0.477-1.871,0.87-3.245,1.184c1.1,0.367,1.902,0.735,2.405,1.102
				c0.34,0.245,0.833,0.77,1.478,1.572c0.646,0.804,1.077,1.423,1.294,1.858l4.474,8.664h-10.44l-4.939-9.138
				c-0.625-1.183-1.183-1.951-1.672-2.305c-0.667-0.462-1.421-0.693-2.264-0.693h-0.816v12.136H251.199z M260.479,125.746h3.896
				c0.421,0,1.237-0.136,2.448-0.408c0.612-0.122,1.112-0.435,1.499-0.938c0.388-0.503,0.581-1.081,0.581-1.734
				c0-0.965-0.306-1.706-0.918-2.223c-0.612-0.517-1.761-0.775-3.447-0.775h-4.059V125.746z"/>
			<path style="fill:#263238;" d="M283.69,143.532v-29.901h15.4c2.855,0,5.038,0.244,6.547,0.734
				c1.509,0.489,2.726,1.397,3.651,2.723c0.924,1.326,1.387,2.94,1.387,4.844c0,1.659-0.353,3.091-1.061,4.294
				c-0.708,1.203-1.681,2.18-2.918,2.927c-0.789,0.477-1.871,0.87-3.245,1.184c1.1,0.367,1.902,0.735,2.405,1.102
				c0.34,0.245,0.833,0.77,1.478,1.572c0.645,0.804,1.077,1.423,1.294,1.858l4.474,8.664h-10.44l-4.939-9.138
				c-0.625-1.183-1.183-1.951-1.672-2.305c-0.667-0.462-1.421-0.693-2.264-0.693h-0.816v12.136H283.69z M292.971,125.746h3.896
				c0.421,0,1.237-0.136,2.448-0.408c0.612-0.122,1.112-0.435,1.499-0.938c0.388-0.503,0.581-1.081,0.581-1.734
				c0-0.965-0.306-1.706-0.918-2.223c-0.612-0.517-1.761-0.775-3.447-0.775h-4.059V125.746z"/>
			<path style="fill:#263238;" d="M314.184,128.602c0-4.881,1.359-8.682,4.079-11.401c2.72-2.72,6.507-4.079,11.361-4.079
				c4.977,0,8.811,1.336,11.503,4.008c2.692,2.672,4.039,6.415,4.039,11.229c0,3.494-0.588,6.36-1.764,8.597
				c-1.176,2.237-2.876,3.977-5.099,5.222c-2.223,1.244-4.994,1.866-8.312,1.866c-3.372,0-6.163-0.537-8.372-1.611
				c-2.21-1.074-4.001-2.773-5.374-5.099C314.87,135.007,314.184,132.097,314.184,128.602z M323.423,128.643
				c0,3.019,0.561,5.188,1.683,6.507c1.122,1.319,2.648,1.979,4.579,1.979c1.985,0,3.521-0.645,4.609-1.938
				c1.088-1.292,1.632-3.61,1.632-6.956c0-2.815-0.568-4.871-1.703-6.17c-1.135-1.298-2.675-1.947-4.62-1.947
				c-1.863,0-3.359,0.659-4.487,1.979C323.987,123.414,323.423,125.597,323.423,128.643z"/>
			<path style="fill:#263238;" d="M350.265,143.532v-29.901h15.4c2.855,0,5.038,0.244,6.547,0.734
				c1.509,0.489,2.726,1.397,3.651,2.723c0.924,1.326,1.387,2.94,1.387,4.844c0,1.659-0.353,3.091-1.061,4.294
				c-0.708,1.203-1.681,2.18-2.918,2.927c-0.789,0.477-1.871,0.87-3.245,1.184c1.1,0.367,1.902,0.735,2.405,1.102
				c0.34,0.245,0.833,0.77,1.478,1.572c0.646,0.804,1.077,1.423,1.294,1.858l4.474,8.664h-10.44l-4.939-9.138
				c-0.625-1.183-1.183-1.951-1.672-2.305c-0.667-0.462-1.421-0.693-2.264-0.693h-0.816v12.136H350.265z M359.546,125.746h3.896
				c0.421,0,1.237-0.136,2.448-0.408c0.612-0.122,1.112-0.435,1.499-0.938c0.388-0.503,0.581-1.081,0.581-1.734
				c0-0.965-0.306-1.706-0.918-2.223c-0.612-0.517-1.761-0.775-3.447-0.775h-4.059V125.746z"/>
		</g>
	</g>
</g>
<g id="Bad_Request">
	<g>
		<path style="fill:#263238;" d="M162.288,97.023V74.74h8.36c1.702,0,3.068,0.226,4.096,0.677c1.028,0.45,1.834,1.145,2.417,2.082
			c0.582,0.938,0.874,1.918,0.874,2.941c0,0.952-0.259,1.85-0.775,2.69c-0.517,0.841-1.297,1.52-2.341,2.036
			c1.348,0.396,2.384,1.069,3.108,2.022c0.725,0.952,1.087,2.077,1.087,3.374c0,1.044-0.22,2.014-0.661,2.911
			c-0.441,0.896-0.986,1.588-1.634,2.074c-0.648,0.486-1.461,0.854-2.439,1.103c-0.978,0.248-2.176,0.372-3.595,0.372H162.288z
			 M165.237,84.104h4.818c1.307,0,2.244-0.086,2.812-0.259c0.749-0.223,1.314-0.593,1.695-1.109c0.38-0.517,0.57-1.165,0.57-1.945
			c0-0.74-0.177-1.391-0.532-1.953c-0.354-0.563-0.861-0.947-1.52-1.155c-0.659-0.208-1.789-0.312-3.389-0.312h-4.454V84.104z
			 M165.237,94.394h5.548c0.952,0,1.621-0.035,2.006-0.106c0.679-0.121,1.247-0.324,1.702-0.607
			c0.456-0.284,0.831-0.697,1.125-1.239c0.294-0.542,0.441-1.168,0.441-1.877c0-0.831-0.213-1.553-0.639-2.166
			c-0.425-0.613-1.016-1.044-1.77-1.292c-0.755-0.248-1.842-0.372-3.26-0.372h-5.153V94.394z"/>
		<path style="fill:#263238;" d="M193.357,95.032c-1.013,0.861-1.989,1.47-2.926,1.824c-0.938,0.354-1.943,0.532-3.017,0.532
			c-1.773,0-3.137-0.434-4.089-1.3c-0.953-0.866-1.429-1.974-1.429-3.321c0-0.791,0.18-1.513,0.54-2.166
			c0.359-0.653,0.831-1.178,1.414-1.573c0.583-0.396,1.239-0.694,1.968-0.896c0.537-0.142,1.348-0.279,2.432-0.411
			c2.209-0.263,3.835-0.577,4.879-0.942c0.01-0.374,0.015-0.612,0.015-0.714c0-1.115-0.258-1.9-0.775-2.356
			c-0.699-0.618-1.738-0.927-3.116-0.927c-1.287,0-2.237,0.225-2.85,0.676c-0.613,0.451-1.067,1.249-1.361,2.395l-2.675-0.365
			c0.243-1.145,0.643-2.069,1.201-2.773c0.557-0.704,1.363-1.247,2.416-1.627c1.054-0.38,2.275-0.569,3.664-0.569
			c1.378,0,2.498,0.162,3.359,0.486c0.861,0.324,1.495,0.731,1.9,1.224c0.405,0.491,0.689,1.112,0.851,1.861
			c0.091,0.467,0.137,1.308,0.137,2.523v3.649c0,2.543,0.058,4.152,0.175,4.825c0.116,0.675,0.347,1.32,0.691,1.938h-2.857
			C193.621,96.456,193.438,95.792,193.357,95.032z M193.129,88.922c-0.993,0.405-2.482,0.75-4.469,1.033
			c-1.125,0.162-1.921,0.345-2.386,0.548c-0.466,0.202-0.826,0.499-1.079,0.889c-0.253,0.391-0.38,0.823-0.38,1.3
			c0,0.729,0.276,1.338,0.829,1.824c0.552,0.486,1.36,0.729,2.424,0.729c1.054,0,1.991-0.23,2.812-0.691
			c0.821-0.461,1.424-1.092,1.809-1.893c0.293-0.618,0.44-1.53,0.44-2.736V88.922z"/>
		<path style="fill:#263238;" d="M210.609,97.023v-2.037c-1.024,1.602-2.528,2.402-4.515,2.402c-1.287,0-2.47-0.355-3.549-1.064
			c-1.08-0.709-1.915-1.7-2.508-2.972c-0.593-1.271-0.889-2.733-0.889-4.385c0-1.611,0.269-3.073,0.806-4.386
			c0.537-1.312,1.343-2.317,2.417-3.017c1.074-0.699,2.274-1.049,3.602-1.049c0.973,0,1.839,0.205,2.599,0.615
			c0.76,0.41,1.378,0.945,1.855,1.604V74.74h2.721v22.283H210.609z M201.96,88.968c0,2.066,0.436,3.612,1.307,4.636
			c0.872,1.023,1.9,1.535,3.085,1.535c1.196,0,2.212-0.489,3.048-1.467c0.836-0.978,1.254-2.47,1.254-4.477
			c0-2.209-0.425-3.83-1.277-4.864c-0.851-1.033-1.9-1.55-3.146-1.55c-1.216,0-2.232,0.496-3.047,1.489
			C202.368,85.264,201.96,86.829,201.96,88.968z"/>
		<path style="fill:#263238;" d="M226.494,97.023V74.74h9.88c1.986,0,3.496,0.2,4.53,0.601c1.034,0.4,1.859,1.107,2.478,2.12
			c0.618,1.014,0.927,2.134,0.927,3.359c0,1.581-0.512,2.913-1.535,3.997c-1.024,1.085-2.604,1.773-4.743,2.067
			c0.78,0.375,1.373,0.745,1.778,1.11c0.861,0.79,1.677,1.778,2.447,2.964l3.876,6.064h-3.709l-2.949-4.636
			c-0.862-1.338-1.571-2.361-2.128-3.07c-0.557-0.71-1.056-1.206-1.497-1.49c-0.441-0.283-0.889-0.48-1.345-0.593
			c-0.335-0.07-0.881-0.106-1.642-0.106h-3.42v9.896H226.494z M229.442,84.574h6.338c1.348,0,2.402-0.139,3.162-0.418
			c0.76-0.278,1.337-0.724,1.733-1.337c0.395-0.613,0.593-1.279,0.593-1.999c0-1.054-0.383-1.92-1.147-2.6
			c-0.766-0.679-1.974-1.018-3.626-1.018h-7.053V84.574z"/>
		<path style="fill:#263238;" d="M259.63,91.825l2.827,0.35c-0.446,1.651-1.272,2.934-2.478,3.846
			c-1.206,0.912-2.747,1.368-4.621,1.368c-2.361,0-4.233-0.728-5.616-2.182s-2.075-3.493-2.075-6.118
			c0-2.716,0.699-4.823,2.098-6.323c1.398-1.499,3.212-2.249,5.441-2.249c2.158,0,3.921,0.734,5.29,2.204
			c1.368,1.469,2.052,3.536,2.052,6.201c0,0.162-0.005,0.405-0.016,0.729h-12.038c0.101,1.773,0.603,3.131,1.505,4.073
			c0.902,0.942,2.026,1.414,3.374,1.414c1.004,0,1.859-0.264,2.569-0.79C258.652,93.821,259.214,92.98,259.63,91.825z
			 M250.646,87.401h9.014c-0.122-1.357-0.466-2.376-1.034-3.055c-0.872-1.054-2.001-1.581-3.39-1.581
			c-1.256,0-2.313,0.421-3.169,1.262C251.211,84.869,250.738,85.993,250.646,87.401z"/>
		<path style="fill:#263238;" d="M276.183,103.21v-7.904c-0.425,0.599-1.021,1.095-1.786,1.49c-0.766,0.395-1.579,0.593-2.44,0.593
			c-1.915,0-3.564-0.766-4.947-2.296c-1.383-1.529-2.075-3.627-2.075-6.293c0-1.621,0.281-3.075,0.844-4.362
			c0.563-1.286,1.378-2.262,2.447-2.926c1.069-0.663,2.242-0.995,3.519-0.995c1.997,0,3.567,0.841,4.712,2.522v-2.158h2.462v22.329
			H276.183z M267.747,88.906c0,2.078,0.435,3.636,1.307,4.675c0.872,1.038,1.915,1.558,3.131,1.558c1.165,0,2.168-0.494,3.01-1.482
			c0.841-0.987,1.262-2.49,1.262-4.507c0-2.147-0.444-3.764-1.33-4.849c-0.887-1.084-1.928-1.626-3.124-1.626
			c-1.186,0-2.191,0.504-3.017,1.513C268.16,85.195,267.747,86.769,267.747,88.906z"/>
		<path style="fill:#263238;" d="M293.785,97.023v-2.371c-1.257,1.824-2.964,2.736-5.123,2.736c-0.953,0-1.842-0.183-2.668-0.548
			c-0.826-0.364-1.439-0.823-1.839-1.375c-0.4-0.553-0.682-1.229-0.844-2.029c-0.111-0.537-0.167-1.389-0.167-2.554V80.881h2.736
			v8.953c0,1.429,0.056,2.392,0.168,2.888c0.172,0.72,0.537,1.284,1.094,1.695c0.557,0.41,1.247,0.615,2.067,0.615
			s1.591-0.21,2.31-0.631c0.72-0.42,1.229-0.993,1.528-1.718c0.299-0.725,0.448-1.775,0.448-3.153v-8.649h2.736v16.143H293.785z"/>
		<path style="fill:#263238;" d="M311.569,91.825l2.827,0.35c-0.446,1.651-1.272,2.934-2.478,3.846
			c-1.206,0.912-2.747,1.368-4.621,1.368c-2.361,0-4.233-0.728-5.616-2.182s-2.075-3.493-2.075-6.118
			c0-2.716,0.699-4.823,2.098-6.323c1.398-1.499,3.212-2.249,5.441-2.249c2.158,0,3.921,0.734,5.29,2.204
			c1.368,1.469,2.052,3.536,2.052,6.201c0,0.162-0.005,0.405-0.016,0.729h-12.038c0.101,1.773,0.603,3.131,1.505,4.073
			c0.902,0.942,2.026,1.414,3.374,1.414c1.003,0,1.859-0.264,2.569-0.79C310.591,93.821,311.153,92.98,311.569,91.825z
			 M302.585,87.401h9.014c-0.122-1.357-0.466-2.376-1.034-3.055c-0.872-1.054-2.001-1.581-3.39-1.581
			c-1.256,0-2.313,0.421-3.169,1.262C303.15,84.869,302.677,85.993,302.585,87.401z"/>
		<path style="fill:#263238;" d="M316.737,92.205l2.706-0.426c0.152,1.085,0.575,1.915,1.27,2.493
			c0.694,0.577,1.664,0.866,2.911,0.866c1.256,0,2.189-0.256,2.797-0.768c0.608-0.512,0.912-1.112,0.912-1.801
			c0-0.618-0.269-1.104-0.805-1.46c-0.375-0.243-1.308-0.552-2.797-0.927c-2.006-0.507-3.397-0.945-4.172-1.315
			c-0.775-0.369-1.363-0.881-1.763-1.535c-0.4-0.653-0.601-1.375-0.601-2.166c0-0.719,0.164-1.385,0.494-1.998
			c0.329-0.613,0.777-1.122,1.345-1.528c0.425-0.313,1.005-0.579,1.74-0.798c0.735-0.218,1.522-0.326,2.364-0.326
			c1.267,0,2.379,0.182,3.336,0.547c0.958,0.365,1.664,0.858,2.12,1.482c0.456,0.623,0.77,1.456,0.942,2.5l-2.675,0.364
			c-0.122-0.83-0.474-1.479-1.056-1.945c-0.583-0.466-1.406-0.699-2.47-0.699c-1.256,0-2.153,0.208-2.69,0.623
			c-0.537,0.416-0.805,0.902-0.805,1.46c0,0.354,0.111,0.674,0.334,0.957c0.223,0.294,0.573,0.537,1.049,0.729
			c0.274,0.102,1.08,0.335,2.417,0.699c1.936,0.517,3.286,0.94,4.051,1.27c0.765,0.329,1.365,0.809,1.801,1.437
			c0.436,0.628,0.653,1.408,0.653,2.341c0,0.912-0.266,1.771-0.798,2.576c-0.532,0.806-1.299,1.429-2.303,1.869
			c-1.003,0.441-2.138,0.662-3.405,0.662c-2.098,0-3.696-0.436-4.795-1.308C317.743,95.21,317.041,93.918,316.737,92.205z"/>
		<path style="fill:#263238;" d="M339.37,94.576l0.396,2.417c-0.771,0.162-1.459,0.243-2.067,0.243
			c-0.993,0-1.763-0.157-2.311-0.472c-0.547-0.313-0.932-0.727-1.155-1.238c-0.223-0.512-0.335-1.589-0.335-3.23v-9.287h-2.006
			v-2.128h2.006v-3.997l2.721-1.642v5.639h2.751v2.128h-2.751v9.439c0,0.78,0.048,1.282,0.145,1.505
			c0.096,0.223,0.253,0.4,0.471,0.532c0.218,0.132,0.529,0.197,0.935,0.197C338.473,94.683,338.873,94.647,339.37,94.576z"/>
	</g>
</g>
</svg>
